<?xml version="1.0" encoding="iso-8859-1"?>
<!-- Uploaded to: SVG Repo, www.svgrepo.com, Generator: SVG Repo Mixer Tools -->
<svg version="1.1" id="Layer_1" xmlns="http://www.w3.org/2000/svg" xmlns:xlink="http://www.w3.org/1999/xlink" 
	 viewBox="0 0 512 512" xml:space="preserve">
<g>
	<rect x="39.684" y="205.162" style="fill:#D9E021;" width="15.562" height="15.562"/>
	<rect x="448.453" y="205.162" style="fill:#D9E021;" width="23.862" height="15.562"/>
	<rect x="386.204" y="425.109" style="fill:#D9E021;" width="62.249" height="15.562"/>
	<rect x="63.546" y="425.109" style="fill:#D9E021;" width="54.987" height="15.562"/>
</g>
<circle style="fill:#29ABE2;" cx="252.202" cy="275.67" r="204.561"/>
<path style="fill:#0C6D95;" d="M256.137,71.106c3.963,0,7.894,0.141,11.801,0.363c-107.481,6.117-192.762,95.186-192.762,204.2
	s85.28,198.083,192.763,204.201c-3.908,0.222-7.838,0.363-11.801,0.363c-112.977,0-204.564-91.586-204.564-204.564
	C51.574,162.692,143.161,71.106,256.137,71.106z"/>
<path style="fill:#54BCE8;" d="M252.204,71.106c-3.964,0-7.894,0.141-11.801,0.363c107.482,6.117,192.762,95.187,192.762,204.201
	s-85.28,198.083-192.762,204.201c3.908,0.222,7.838,0.363,11.801,0.363c112.977,0,204.564-91.586,204.564-204.564
	C456.767,162.692,365.181,71.106,252.204,71.106z"/>
<g>
	<rect x="47.984" y="267.411" style="fill:#FFFFFF;" width="22.825" height="15.562"/>
	<rect x="338.48" y="109.714" style="fill:#FFFFFF;" width="47.724" height="15.562"/>
	<rect x="157.957" y="448.971" style="fill:#FFFFFF;" width="70.549" height="15.562"/>
</g>
<path style="fill:#8CC63F;" d="M378.09,275.669c0,21.726-39.339,70.81-39.339,70.81s-39.339-49.084-39.339-70.81
	s17.612-39.339,39.339-39.339C360.476,236.33,378.09,253.943,378.09,275.669z"/>
<circle style="fill:#FFFFFF;" cx="338.749" cy="275.67" r="15.736"/>
<circle style="fill:#F7931E;" cx="338.749" cy="370.081" r="15.736"/>
<path style="fill:#8CC63F;" d="M228.601,71.106c0,21.727-39.339,70.81-39.339,70.81s-39.339-49.084-39.339-70.81
	s17.612-39.339,39.339-39.339C210.988,31.766,228.601,49.379,228.601,71.106z"/>
<circle style="fill:#FFFFFF;" cx="189.258" cy="71.109" r="15.736"/>
<path d="M189.261,94.622c-12.968,0-23.517-10.549-23.517-23.517c0-12.966,10.549-23.517,23.517-23.517
	c12.968,0,23.517,10.55,23.517,23.517S202.229,94.622,189.261,94.622z M189.261,63.151c-4.386,0-7.954,3.568-7.954,7.954
	s3.568,7.954,7.954,7.954c4.386,0,7.954-3.568,7.954-7.954S193.647,63.151,189.261,63.151z"/>
<circle style="fill:#F7931E;" cx="189.258" cy="165.52" r="15.736"/>
<path d="M338.75,299.185c-12.968,0-23.517-10.549-23.517-23.517s10.549-23.517,23.517-23.517s23.517,10.549,23.517,23.517
	C362.267,288.636,351.718,299.185,338.75,299.185z M338.75,267.715c-4.387,0-7.954,3.568-7.954,7.954s3.568,7.954,7.954,7.954
	c4.386,0,7.954-3.568,7.954-7.954C346.705,271.283,343.136,267.715,338.75,267.715z"/>
<g>
	<rect x="149.657" y="158.475" style="fill:#F7931E;" width="23.862" height="15.562"/>
	<path style="fill:#F7931E;" d="M31.385,220.508C14.785,220.508,0,206.429,0,189.123c0-17.305,14.785-31.385,31.385-31.385V173.3
		c-8.3,0-15.823,7.097-15.823,15.823c0,8.724,7.523,15.823,15.823,15.823V220.508z"/>
	<path style="fill:#F7931E;" d="M55.247,440.807c-21.787,0-39.253-17.609-39.253-39.253s17.466-39.252,39.253-39.252v15.562
		c-12.45,0-23.691,10.627-23.691,23.69c0,13.063,11.241,23.691,23.691,23.691V440.807z"/>
	<path style="fill:#F7931E;" d="M149.658,377.864v-15.562c9.337,0,15.822-7.097,15.822-15.823c0-8.724-6.484-15.822-15.822-15.822
		v-15.562c17.637,0,31.384,14.079,31.384,31.384C181.042,363.785,167.296,377.864,149.658,377.864z"/>
	<path style="fill:#F7931E;" d="M118.534,330.657c-21.787,0-39.252-17.609-39.252-39.252c0-21.644,17.465-39.252,39.252-39.252
		v15.562c-13.487,0-23.69,10.627-23.69,23.69s10.203,23.69,23.69,23.69V330.657z"/>
</g>
<rect x="125.795" y="251.849" style="fill:#D9E021;" width="173.26" height="15.562"/>
<g>
	<path style="fill:#F7931E;" d="M480.616,267.715v-15.562c8.3,0,15.822-7.097,15.822-15.823c0-8.724-7.522-15.823-15.822-15.823
		v-15.562c16.6,0,31.384,14.079,31.384,31.385C512,253.636,497.216,267.715,480.616,267.715z"/>
	<path style="fill:#F7931E;" d="M456.754,440.807v-15.562c13.487,0,23.69-10.628,23.69-23.691s-10.203-23.69-23.69-23.69v-15.562
		c21.787,0,39.252,17.608,39.252,39.252C496.006,423.198,478.541,440.807,456.754,440.807z"/>
	<rect x="354.042" y="362.86" style="fill:#F7931E;" width="24.9" height="15.562"/>
</g>
<g>
	<rect x="259.631" y="109.714" style="fill:#FFFFFF;" width="63.287" height="15.562"/>
	<rect x="236.806" y="158.475" style="fill:#FFFFFF;" width="117.236" height="15.562"/>
	<rect x="110.233" y="205.162" style="fill:#FFFFFF;" width="133.836" height="15.562"/>
	<rect x="267.931" y="205.162" style="fill:#FFFFFF;" width="23.862" height="15.562"/>
	<rect x="363.379" y="205.162" style="fill:#FFFFFF;" width="38.387" height="15.562"/>
	<rect x="141.357" y="282.974" style="fill:#FFFFFF;" width="102.711" height="15.562"/>
	<rect x="228.506" y="330.698" style="fill:#FFFFFF;" width="54.987" height="15.562"/>
	<rect x="181.819" y="362.86" style="fill:#FFFFFF;" width="31.125" height="15.562"/>
	<rect x="190.119" y="417.847" style="fill:#FFFFFF;" width="140.061" height="15.562"/>
</g>
<path d="M252.204,63.324c-5.451,0-10.926,0.227-16.363,0.641c-3.451-22.607-23.024-39.981-46.58-39.981
	c-25.983,0-47.12,21.138-47.12,47.121c0,5.621,2.061,12.521,5.262,19.851C117.43,108,91.892,132.198,73.245,161.324l-0.714,1.124
	C51.157,196.298,39.86,235.449,39.86,275.67c0,117.087,95.257,212.345,212.345,212.345s212.345-95.258,212.345-212.345
	S369.292,63.324,252.204,63.324z M189.261,39.547c17.401,0,31.558,14.158,31.558,31.558c0,12.013-17.442,39.248-31.558,58.093
	c-14.116-18.845-31.558-46.08-31.558-58.093C157.703,53.704,171.859,39.547,189.261,39.547z M189.261,157.564
	c4.386,0,7.954,3.568,7.954,7.954c0,4.386-3.568,7.954-7.954,7.954c-4.386,0-7.954-3.568-7.954-7.954
	C181.307,161.132,184.875,157.564,189.261,157.564z M252.204,472.452c-108.506,0-196.783-88.276-196.783-196.783
	c0-37.275,10.467-73.554,30.269-104.914l0.664-1.044c17.15-26.786,40.592-49.07,68.092-64.846
	c9.138,16.156,20.905,31.866,26.256,38.756c-8.745,3.431-14.956,11.95-14.956,21.897c0,12.968,10.549,23.517,23.517,23.517
	c12.968,0,23.517-10.55,23.517-23.517c0-9.947-6.211-18.466-14.956-21.897c8.241-10.612,31.707-42.147,37.336-64.007
	c5.653-0.483,11.366-0.729,17.047-0.729c108.506,0,196.783,88.276,196.783,196.783S360.711,472.452,252.204,472.452z"/>
<g>
	<rect x="125.795" y="315.136" style="fill:#D9E021;" width="15.562" height="15.562"/>
	<rect x="39.684" y="158.475" style="fill:#D9E021;" width="101.674" height="15.562"/>
	<rect x="378.941" y="251.849" style="fill:#D9E021;" width="93.374" height="15.562"/>
	<rect x="63.546" y="362.86" style="fill:#D9E021;" width="77.811" height="15.562"/>
	<rect x="386.204" y="362.86" style="fill:#D9E021;" width="62.249" height="15.562"/>
</g>
<path d="M347.311,348.186c9.391-12.095,38.56-51.365,38.56-72.517c0-25.983-21.138-47.121-47.12-47.121
	s-47.121,21.138-47.121,47.121c0,21.152,29.169,60.422,38.56,72.517c-8.745,3.431-14.956,11.95-14.956,21.897
	c0,12.968,10.549,23.517,23.517,23.517s23.517-10.549,23.517-23.517C362.267,360.135,356.056,351.617,347.311,348.186z
	 M338.75,244.111c17.401,0,31.558,14.157,31.558,31.558c0,12.013-17.442,39.248-31.558,58.093
	c-14.117-18.844-31.558-46.08-31.558-58.093C307.192,258.268,321.349,244.111,338.75,244.111z M338.75,378.037
	c-4.387,0-7.954-3.568-7.954-7.954c0-4.386,3.568-7.955,7.954-7.955c4.386,0,7.954,3.569,7.954,7.955
	C346.705,374.469,343.136,378.037,338.75,378.037z"/>
</svg>