<svg version="1.1" width="100" height="54" viewBox="0 0 2023.8206 1096.6453" sodipodi:docname="logo_flit.svg" inkscape:version="1.2.1 (2ed6d7ae0b, 2022-08-22, custom)" xmlns:inkscape="http://www.inkscape.org/namespaces/inkscape" xmlns:sodipodi="http://sodipodi.sourceforge.net/DTD/sodipodi-0.dtd" xmlns="http://www.w3.org/2000/svg" xmlns:svg="http://www.w3.org/2000/svg" class="uk-svg">
  <defs id="defs202"></defs>
  <sodipodi:namedview id="namedview200" pagecolor="#ffffff" bordercolor="#666666" borderopacity="1.0" inkscape:showpageshadow="2" inkscape:pageopacity="0.0" inkscape:pagecheckerboard="0" inkscape:deskcolor="#d1d1d1" showgrid="false" inkscape:zoom="0.33758803" inkscape:cx="5.9243807" inkscape:cy="647.23859" inkscape:window-width="2560" inkscape:window-height="1011" inkscape:window-x="0" inkscape:window-y="0" inkscape:window-maximized="1" inkscape:current-layer="g204"></sodipodi:namedview>
  <g inkscape:groupmode="layer" inkscape:label="Image" id="g204" transform="translate(21.075423,0.46591217)">
    <path style="fill:#00a5eb;fill-opacity:1;stroke-width:1.33333" d="m 52.95032,1093.6851 c -2.2,-1.3664 -5.5,-4.1124 -7.3334,-6.1022 l -3.3333,-3.6179 -0.6667,-150.22618 -0.6666,-150.22613 -25.3334,-0.33005 c -27.5455,-0.35888 -29.7982,-0.87126 -34.0456,-7.7437 -2.4662,-3.9905 -2.621,-6.82134 -2.621,-47.92625 0,-58.65931 -2.3034,-55.16221 36.6666,-55.66995 l 25.3334,-0.33005 0.7762,-61.33333 c 0.716,-56.57589 1.0024,-62.34106 3.6924,-74.32517 13.5057,-60.16964 51.3902,-102.59952 108.636,-121.67024 23.9178,-7.96788 37.2334,-10.12262 67.624,-10.94297 38.7175,-1.04512 64.4563,2.31447 94.3383,12.31363 27.4355,9.18046 35.6882,15.72422 34.4452,27.3121 -0.857,7.98934 -26.4989,74.06219 -30.3216,78.13124 -6.2088,6.60899 -9.8754,6.538 -37.7892,-0.73158 -50.9989,-13.28164 -85.7889,-3.42544 -100.879,28.57966 -7.039,14.92911 -7.8557,22.77036 -7.8557,75.4205 v 47.91283 h 66.8 66.8 l 4.5333,4.53333 4.5334,4.53333 v 46.26667 46.26667 l -4.5334,4.53333 -4.5333,4.53333 h -66.8 -66.8 v 148.39978 148.3998 l -3.4504,5.3213 c -1.8977,2.9268 -5.3849,6.6469 -7.7492,8.2669 -4.249,2.9115 -4.8844,2.9455 -54.8829,2.9406 -47.0213,0 -50.8659,-0.18 -54.5841,-2.4893 z m 383.2289,-0.5375 c -2.4744,-1.6674 -5.8631,-5.0561 -7.5306,-7.5305 l -3.0317,-4.4988 V 749.7917 418.46509 l 6.4762,-6.4762 6.4762,-6.47619 h 53.0476 53.0476 l 6.4762,6.47619 6.4762,6.4762 v 331.32661 331.3266 l -3.0317,4.4988 c -1.6675,2.4744 -5.0562,5.8631 -7.5305,7.5305 -4.4844,3.022 -4.6621,3.0318 -55.4378,3.0318 -50.7756,0 -50.9534,-0.01 -55.4377,-3.0318 z m 207.8835,-0.257 c -2.6619,-1.8089 -6.1012,-5.3297 -7.6428,-7.8241 l -2.8029,-4.5352 V 884.2891 c 0,-216.64289 -0.7044,-199.70301 8.6449,-207.91182 l 4.7812,-4.19792 52.2869,0.009 c 58.1995,0.009 55.8205,-0.34383 62.9808,9.36141 l 3.3062,4.48155 v 197.94844 197.94844 l -3.4878,4.5727 c -7.5681,9.9223 -5.9272,9.6685 -62.5361,9.674 h -50.6904 z m 406.88758,2.4919 c -47.7791,-5.6983 -80.78532,-19.9153 -106.47788,-45.864 -19.4643,-19.6583 -32.0666,-44.5152 -39.2106,-77.33914 -2.6071,-11.97828 -2.7851,-17.71662 -3.2751,-105.58815 l -0.5183,-92.92148 -25.9066,-0.41185 -25.9066,-0.41186 -5.0191,-5.02054 -5.0191,-5.02055 -0.3868,-43.57436 c -0.4183,-47.12943 -0.2375,-48.60599 6.662,-54.41155 3.8876,-3.2712 4.2045,-3.30633 29.8271,-3.30633 h 25.8977 V 612.0034 c 0,-55.21731 -0.2176,-53.82803 9.5815,-61.17703 l 4.4185,-3.31367 50.4032,-0.37937 c 49.88208,-0.37547 50.45738,-0.34891 55.64828,2.56854 2.8849,1.62138 6.7534,5.12434 8.5968,7.78439 l 3.3517,4.83644 v 49.59499 49.595 h 68.1569 68.1568 l 5.1765,5.17647 5.1765,5.17648 v 44.95102 c 0,43.38207 -0.097,45.08691 -2.7718,48.84366 -5.7013,8.00672 -4.1846,7.85237 -77.162,7.85237 h -66.7329 l 0.011,77 c 0.01,45.92996 0.5589,80.38225 1.3703,85.38215 2.9081,17.92053 10.3915,31.01612 22.1896,38.83086 10.304,6.82509 18.7841,8.78319 37.7633,8.71959 15.2623,-0.051 17.7341,-0.4226 29.3334,-4.4076 6.9666,-2.39339 18.297,-7.01564 25.1785,-10.27165 13.3207,-6.30274 18.0376,-7.08336 24.0412,-3.97875 4.8621,2.51425 6.1181,5.32648 17.5053,39.19371 10.3105,30.6652 12.2674,41.1466 8.89,47.6167 -7.9987,15.3232 -48.0504,33.5721 -90.9484,41.439 -10.4062,1.9083 -48.6862,3.4566 -58,2.3458 z m 590,-428.02292 c -48.623,-5.0995 -88.1585,-16.70956 -127.3333,-37.39282 -99.316,-52.43626 -167.0435,-153.23753 -177.4701,-264.13491 -2.9278,-31.13813 -0.4564,-71.37169 6.3257,-102.98583 24.1021,-112.34986 107.5371,-206.576348 216.658,-244.680628 42.4859,-14.8358103 102.6285,-22.9712203 120.0683,-16.2414703 7.2937,2.81456 14.7356,10.4704303 17.0785,17.5699303 4.2565,12.89713 -2.2139,28.00717 -14.7048,34.34018 -6.5545,3.3232 -9.8412,3.90324 -32.6223,5.75732 -50.0653,4.07466 -84.9278,14.59804 -121.4556,36.66184 -28.2024,17.035048 -59.3986,44.718378 -77.7174,68.965738 -83.3936,110.38265 -74.4478,264.78997 20.9364,361.36677 23.1814,23.47121 46.4576,40.15691 76.9033,55.12871 89.0423,43.78679 192.0977,37.41116 273.3464,-16.91082 32.8773,-21.98144 62.8961,-52.94893 83.5792,-86.22061 25.2051,-40.54601 38.9887,-85.87507 40.6667,-133.73696 2.0766,-59.23756 -14.174,-113.83948 -49.2591,-165.50929 -7.016,-10.33255 -14.0224,-21.26799 -15.5697,-24.30097 -6.0855,-11.92862 -4.7648,-24.49098 3.5414,-33.68495 8.6702,-9.59685 17.0664,-12.03959 29.2294,-8.50373 11.375,3.30681 23.1834,15.84236 37.0814,39.36496 34.8811,59.03638 49.7451,107.3878 52.251,169.96732 4.3729,109.20421 -46.355,215.29651 -133.8442,279.92173 -45.16,33.35808 -94.6064,53.63011 -153.2729,62.83881 -12.6053,1.97864 -62.9983,3.61719 -74.4163,2.41968 z M 685.36752,591.55301 c -19.1459,-5.27319 -35.1373,-19.57102 -42.3471,-37.86239 -9.9408,-25.22011 -4.1599,-54.96855 14.2614,-73.38911 19.8268,-19.82597 53.1279,-24.56678 79.3232,-11.29262 9.4982,4.81306 22.3514,18.02765 26.8719,27.6273 10.1259,21.5034 9.1723,47.03404 -2.5008,66.9527 -7.5316,12.85184 -24.3498,25.01993 -39.3591,28.47675 -8.1656,1.88061 -28.6098,1.59149 -36.2495,-0.51263 z m 964.48228,-39.50995 c -15.5963,-1.31935 -40.2388,-6.51835 -54.1797,-11.43068 -15.2748,-5.38236 -40.4763,-18.50611 -54.011,-28.12633 -15.2306,-10.82567 -37.8468,-33.04788 -48.4889,-47.64442 -30.1135,-41.30265 -45.2421,-90.1491 -43.1527,-139.32894 2.4419,-57.4746 24.88,-108.32143 65.605,-148.66667 29.7634,-29.48593 65.9177,-48.81969 108.9958,-58.28642 12.0068,-2.63859 17.3874,-2.99966 44.332,-2.97487 26.6018,0.0244 32.4602,0.41888 44.1971,2.97555 66.0841,14.39526 121.1436,57.01917 151.0731,116.95241 15.2445,30.52699 22.3296,59.52129 23.6213,96.66667 1.1397,32.77062 -2.9803,46.29594 -16.5283,54.25962 -5.2525,3.08751 -7.9141,3.74039 -15.2484,3.74039 -7.7188,0 -9.644,-0.52831 -14.6666,-4.02491 -10.3412,-7.19921 -11.0904,-10.18977 -11.1839,-44.64177 -0.063,-23.3252 -0.5899,-32.22493 -2.3669,-40 -11.5974,-50.74175 -40.7752,-89.36267 -84.3063,-111.59111 -26.0365,-13.29512 -47.0004,-18.27154 -76.5911,-18.18124 -20.6486,0.0631 -32.5217,1.93091 -50.6666,7.97092 -55.3914,18.4385 -97.096,67.81176 -107.4326,127.1869 -3.2338,18.57593 -2.0549,49.34549 2.5682,67.0321 7.5485,28.87784 19.8316,50.26643 41.531,72.31836 31.3132,31.82181 66.3306,47.66879 109.4626,49.53697 35.3222,1.52994 67.2566,-7.50854 95.1218,-26.92252 12.5243,-8.72572 19.6763,-12.37405 26.3492,-13.44112 16.0715,-2.5699 31.0664,10.98884 31.0664,28.09075 0,15.75584 -10.954,27.0424 -41.3154,42.56989 -41.1588,21.04951 -81.5936,29.52958 -123.7851,25.96047 z m 1.5808,-113.74019 c -13.2257,-2.52813 -18.0969,-4.24152 -31.376,-11.03613 -32.6621,-16.71268 -54.3317,-52.13332 -54.9097,-89.75405 -0.1754,-11.41691 0.177,-13.42328 3.571,-20.33511 8.0532,-16.39992 27.4954,-20.28425 40.9023,-8.17186 6.3348,5.7231 7.5412,9.4369 8.6104,26.50697 1.1649,18.59749 3.3976,24.57888 12.7373,34.1238 27.1703,27.76725 70.8904,20.61286 86.959,-14.23001 4.1956,-9.09783 4.1497,-29.51038 -0.092,-41.10252 -3.3095,-9.04343 -3.7592,-20.57118 -1.0087,-25.85748 6.3257,-12.15782 23.8008,-17.72756 34.6271,-11.03651 15.4016,9.51864 22.833,28.70168 22.7673,58.76939 -0.037,16.78921 -0.3319,18.85202 -4.3883,30.66666 -9.7462,28.38651 -27.8318,49.1412 -54.4413,62.47575 -18.2457,9.14336 -44.1093,12.77518 -63.9579,8.9811 z" id="path316"></path>
  </g>
</svg>