<!DOCTYPE svg PUBLIC "-//W3C//DTD SVG 1.1//EN" "http://www.w3.org/Graphics/SVG/1.1/DTD/svg11.dtd">

<!-- Uploaded to: SVG Repo, www.svgrepo.com, Transformed by: SVG Repo Mixer Tools -->
<svg version="1.1" id="Layer_1" xmlns="http://www.w3.org/2000/svg" xmlns:xlink="http://www.w3.org/1999/xlink" viewBox="0 0 512.001 512.001" xml:space="preserve" width="800px" height="800px" fill="#55427e">

<g id="SVGRepo_bgCarrier" stroke-width="0"/>

<g id="SVGRepo_tracerCarrier" stroke-linecap="round" stroke-linejoin="round"/>

<g id="SVGRepo_iconCarrier"> <path style="fill:#55427e;" d="M132.809,497.68v-56.416c-36.64-1.16-73.273-11.664-94.24-25.584l15.704-54.664 c27.494,16.29,58.766,25.115,90.72,25.6c36.64,0,61.649-18.032,61.649-45.936c0-26.168-20.36-43.04-63.392-58.745 C82.216,259.824,42.665,231.904,42.665,177.833c0-50.016,34.896-88.4,93.601-98.864V21.976h47.688v54.08 c27.85,0.311,55.274,6.872,80.248,19.2l-15.705,53.504c-24.409-12.805-51.526-19.586-79.088-19.776 c-40.712,0-55.248,20.936-55.248,40.712c0,23.84,20.936,37.216,70.4,56.992c65.136,24.424,94.208,55.833,94.208,107.585 c0,49.432-34.312,93.048-98.28,103.512v59.896L132.809,497.68L132.809,497.68z"/> <rect x="389.934" y="127.248" style="fill:#001969;" width="15.999" height="384.753"/> <polygon points="322.448,130.744 397.936,0 473.433,130.744 "/> </g>

</svg>